<?xml version="1.0" standalone="no"?>
<!DOCTYPE svg PUBLIC "-//W3C//DTD SVG 20010904//EN"
 "http://www.w3.org/TR/2001/REC-SVG-20010904/DTD/svg10.dtd">
<svg version="1.0" xmlns="http://www.w3.org/2000/svg"
 width="1024.000000pt" height="1024.000000pt" viewBox="0 0 1024.000000 1024.000000"
 preserveAspectRatio="xMidYMid meet">

<g transform="translate(0.000000,1024.000000) scale(0.100000,-0.100000)"
fill="#000000" stroke="none">
<path d="M720 10229 c-139 -17 -265 -68 -386 -155 -146 -103 -258 -273 -310
-469 -18 -68 -19 -203 -19 -4480 l0 -4410 23 -88 c39 -154 111 -279 227 -392
105 -103 227 -170 385 -212 61 -17 329 -18 4833 -20 l4767 -3 0 4713 c0 3242
-3 4739 -11 4797 -36 289 -194 514 -454 643 -87 43 -155 63 -265 76 -103 13
-8689 13 -8790 0z m6456 -1716 c-4 -10 -28 -53 -54 -96 -146 -244 -330 -378
-592 -431 -160 -32 -273 -36 -982 -36 -756 0 -945 -7 -1071 -39 -199 -51 -325
-174 -417 -404 -17 -42 -61 -197 -99 -345 -164 -643 -945 -3638 -951 -3645
-10 -12 -156 30 -234 67 -253 122 -444 391 -518 731 -8 39 -13 130 -12 260 1
174 4 218 28 340 15 77 160 667 322 1310 338 1341 334 1322 341 1436 8 119 -8
179 -61 234 -74 78 -81 79 -633 83 -334 2 -483 7 -483 14 0 28 100 196 148
249 139 154 358 254 607 278 50 4 1120 9 2379 10 2175 1 2288 0 2282 -16z
m648 -1286 c329 -68 503 -178 592 -371 67 -147 69 -304 9 -562 -49 -205 -767
-2892 -797 -2979 -124 -364 -327 -539 -693 -599 -55 -9 -174 -21 -265 -26
-211 -13 -1783 -12 -1953 0 -343 25 -578 103 -713 235 -74 73 -137 194 -155
299 -14 85 -7 244 16 346 9 41 188 750 397 1575 236 932 393 1534 415 1590
133 339 306 463 703 504 47 5 598 8 1225 7 1013 -2 1149 -4 1219 -19z m-88
-4947 c131 -12 261 -47 359 -98 89 -46 211 -166 287 -282 62 -96 102 -170 95
-177 -3 -2 -524 -5 -1159 -6 -1218 -2 -1231 -2 -1412 44 -157 40 -282 114
-393 233 -63 66 -137 197 -149 264 l-6 32 1133 0 c661 0 1180 -4 1245 -10z"/>
<path d="M6230 6883 c-155 -24 -248 -59 -329 -123 -53 -42 -125 -145 -160
-227 -30 -74 -750 -2909 -763 -3010 -13 -90 -3 -173 27 -237 35 -74 119 -135
235 -171 121 -37 710 -40 907 -4 129 23 273 120 343 229 18 28 45 83 60 123
29 72 755 2805 784 2949 33 158 14 256 -65 342 -27 30 -71 64 -104 80 -104 51
-156 56 -550 54 -198 0 -371 -2 -385 -5z"/>
</g>
</svg>
