<?xml version="1.0" standalone="no"?>
<!DOCTYPE svg PUBLIC "-//W3C//DTD SVG 20010904//EN"
 "http://www.w3.org/TR/2001/REC-SVG-20010904/DTD/svg10.dtd">
<svg version="1.0" xmlns="http://www.w3.org/2000/svg"
 width="1200.000000pt" height="1200.000000pt" viewBox="0 0 1200.000000 1200.000000"
 preserveAspectRatio="xMidYMid meet">

<g transform="translate(0.000000,1200.000000) scale(0.100000,-0.100000)"
fill="#00a6e5" stroke="none">
<path d="M855 11990 c-389 -41 -715 -325 -822 -715 l-28 -100 0 -5175 0 -5175
28 -100 c98 -357 365 -614 727 -701 72 -18 314 -19 5658 -21 l5582 -3 -2 5587
-3 5588 -28 100 c-94 344 -348 598 -692 692 l-100 28 -5125 1 c-2819 1 -5157
-2 -5195 -6z m7555 -2007 c0 -14 -89 -165 -134 -227 -83 -116 -236 -249 -356
-311 -96 -49 -259 -91 -450 -116 -55 -7 -442 -14 -1085 -19 -958 -6 -1004 -8
-1090 -27 -245 -56 -378 -160 -490 -383 -50 -99 -95 -223 -120 -330 -19 -83
-1117 -4313 -1141 -4397 -18 -62 -22 -63 -134 -33 -167 46 -361 170 -471 302
-148 178 -253 404 -295 638 -23 128 -23 385 0 544 28 195 42 253 407 1701 192
765 358 1433 368 1485 42 209 36 329 -21 414 -36 56 -121 100 -218 116 -38 6
-283 10 -592 10 -291 0 -528 3 -528 6 0 20 110 222 146 268 144 184 408 317
699 355 85 10 5505 14 5505 4z m700 -1506 c381 -64 603 -183 723 -388 60 -103
79 -175 84 -324 6 -150 -6 -234 -68 -480 -81 -324 -869 -3276 -900 -3371 -107
-336 -276 -543 -529 -649 -175 -74 -352 -102 -715 -115 -336 -12 -1863 -12
-2108 0 -456 22 -776 126 -932 303 -62 70 -131 213 -151 312 -21 100 -14 278
15 414 40 181 893 3537 923 3631 65 200 159 363 268 464 105 96 272 164 488
197 154 23 363 26 1562 25 1126 -2 1244 -3 1340 -19z m-15 -5807 c201 -23 368
-84 501 -184 71 -53 157 -154 236 -276 51 -78 108 -181 108 -195 0 -3 -627 -4
-1392 -2 -1486 4 -1444 3 -1633 52 -191 50 -359 154 -484 300 -44 52 -135 226
-146 283 l-7 32 1364 0 c863 0 1396 -4 1453 -10z"/>
<path d="M7322 8070 c-171 -19 -331 -80 -424 -160 -65 -56 -139 -171 -176
-272 -17 -47 -223 -840 -458 -1764 l-428 -1679 -1 -140 c0 -126 2 -145 24
-192 44 -98 157 -180 298 -219 137 -36 787 -39 1014 -3 132 20 243 72 342 158
53 47 130 167 165 258 29 75 858 3194 909 3417 34 150 30 285 -10 362 -54 105
-152 177 -294 216 -73 20 -104 22 -483 24 -223 1 -438 -1 -478 -6z"/>
</g>
</svg>
