<?xml version="1.0" encoding="UTF-8"?>
<svg version="1.1" xmlns="http://www.w3.org/2000/svg" width="1005" height="1005" viewBox="0 0 1005 1005">
    <path
        d="M0 0 C331.65 0 663.3 0 1005 0 C1005 331.65 1005 663.3 1005 1005 C673.35 1005 341.7 1005 0 1005 C0 673.35 0 341.7 0 0 Z "
        fill="#1C9DD9" transform="translate(0,0)" />
    <path
        d="M0 0 C3.53236349 3.26772388 5.46737338 7.24729286 7.5390625 11.53125 C9.98437741 16.48173019 12.38076835 20.74653131 15.9140625 25.03125 C15.9140625 25.69125 15.9140625 26.35125 15.9140625 27.03125 C22.77376059 30.7469198 29.33647281 33.46877312 37.1875 31.4453125 C46.94139969 28.09144794 54.48123843 20.90358909 61.37890625 13.44140625 C63.9726701 11.05883946 66.02744956 10.12679977 69.54418945 9.74780273 C73.97421646 10.12042183 77.10848641 11.72917824 81.015625 13.7578125 C81.77451019 14.14311127 82.53339539 14.52841003 83.3152771 14.92538452 C84.91352004 15.74149939 86.50858048 16.56387333 88.10058594 17.39208984 C90.5283774 18.65071061 92.96991815 19.87896878 95.4140625 21.10546875 C96.96967323 21.90445503 98.52439248 22.70517989 100.078125 23.5078125 C101.16729721 24.05195297 101.16729721 24.05195297 102.2784729 24.60708618 C106.8550239 27.02566687 109.45662141 29.30179078 111.9140625 34.03125 C112.37175517 38.6081767 111.90151085 42.31626616 110.9140625 46.78125 C109.02515233 55.62787246 108.7378774 64.79771433 112.9140625 73.03125 C117.06807174 78.56992899 123.67918335 82.41640829 130.55078125 83.4140625 C136.78359634 83.5414485 142.83039185 82.49402698 148.96484375 81.4921875 C154.49490748 80.62788615 158.55416857 80.14639614 163.30639648 83.46142578 C166.88169253 86.95256528 168.80152325 91.72197644 170.9765625 96.15625 C171.47994141 97.15140625 171.98332031 98.1465625 172.50195312 99.171875 C173.50242395 101.15469688 174.4940892 103.1419882 175.4765625 105.13378906 C176.42248683 107.0404178 177.38564771 108.93860783 178.3671875 110.82714844 C179.04201172 112.13087402 179.04201172 112.13087402 179.73046875 113.4609375 C180.13080322 114.22390137 180.5311377 114.98686523 180.94360352 115.77294922 C182.73748714 119.94739539 183.20994952 123.65933643 181.9140625 128.03125 C179.32454029 131.79941124 176.18368595 134.85273061 172.9140625 138.03125 C171.44042066 139.62136525 169.98104514 141.22486987 168.5390625 142.84375 C167.91257812 143.53082031 167.28609375 144.21789062 166.640625 144.92578125 C161.63298412 151.03238404 160.40566904 156.37866018 160.51953125 164.15234375 C161.33341764 170.09129689 164.59049176 174.03536231 169.046875 177.86328125 C174.44932211 181.81259489 180.31216382 185.07544054 186.1796875 188.27954102 C192.3117388 191.66306989 192.3117388 191.66306989 193.9140625 194.03125 C194.94905545 199.18890448 194.80283982 203.50261274 194.0234375 208.6875 C193.86551727 209.7464447 193.86551727 209.7464447 193.70440674 210.82678223 C193.48055533 212.30991569 193.25170088 213.79230193 193.01806641 215.27392578 C192.66533992 217.52310448 192.33357583 219.77468352 192.00390625 222.02734375 C191.78250082 223.47675412 191.55988445 224.92598014 191.3359375 226.375 C191.13581055 227.67630859 190.93568359 228.97761719 190.72949219 230.31835938 C189.65369713 235.21676995 188.26598119 239.44996387 184.95703125 243.3203125 C179.47618009 246.40197208 173.2252062 246.91485215 167.08007812 247.921875 C158.84571029 249.42935801 150.52216523 252.11002187 145.2890625 259.09375 C142.37916168 265.42870155 143.02412099 272.87633438 144.8671875 279.41015625 C146.80238123 284.59721033 149.11683772 289.46729283 151.7265625 294.34375 C154.0976514 299.03290026 154.92648852 301.80038223 153.9140625 307.03125 C149.17780138 313.83664757 142.5372844 319.56240713 136.66918945 325.40649414 C135.08360454 326.98664644 133.50352808 328.57216976 131.92382812 330.15820312 C130.91438358 331.16698806 129.90462951 332.17546338 128.89453125 333.18359375 C127.98598389 334.09101318 127.07743652 334.99843262 126.14135742 335.93334961 C123.43067229 338.48655769 122.5448554 338.96896918 118.828125 339.3359375 C113.95687972 338.95673877 110.59054765 337.35259136 106.2890625 335.15625 C96.39630039 330.17878979 96.39630039 330.17878979 85.4765625 328.65625 C84.19910156 328.62789062 82.92164063 328.59953125 81.60546875 328.5703125 C77.36781853 329.09945824 75.29608801 330.51091877 71.9140625 333.03125 C71.2540625 333.03125 70.5940625 333.03125 69.9140625 333.03125 C69.6665625 333.670625 69.4190625 334.31 69.1640625 334.96875 C68.48023831 336.64411927 67.77667429 338.31368116 66.98510742 339.94091797 C63.86866464 346.44318971 62.65434264 352.74807212 61.58007812 359.83398438 C60.5700534 365.64941307 59.31727622 368.99497075 54.9140625 373.03125 C52.28515625 374.16796875 52.28515625 374.16796875 49.3515625 374.71875 C47.64806641 375.04359375 47.64806641 375.04359375 45.91015625 375.375 C44.57841986 375.595538 43.2463619 375.81413916 41.9140625 376.03125 C41.13949707 376.16660156 40.36493164 376.30195312 39.56689453 376.44140625 C15.72501469 380.58863236 15.72501469 380.58863236 8.9140625 379.03125 C5.91495494 376.89438586 4.54945994 374.28257587 2.9140625 371.03125 C-4.08477188 357.16503772 -4.08477188 357.16503772 -15.4609375 346.96875 C-22.92399809 345.03864812 -29.24161973 345.22885124 -36.0859375 349.03125 C-42.09805485 352.86634801 -46.9513972 357.74585502 -51.88671875 362.859375 C-54.99710784 365.9310914 -56.58735496 366.97042293 -60.9921875 367.5078125 C-67.52240134 367.35195384 -72.86544116 364.30417808 -78.5859375 361.40625 C-79.66230469 360.88417969 -80.73867188 360.36210938 -81.84765625 359.82421875 C-100.58166479 350.58271636 -100.58166479 350.58271636 -104.0859375 344.03125 C-104.75165534 337.15216562 -103.55115809 330.48833639 -102.5234375 323.6796875 C-101.57530593 315.77294744 -102.27526764 310.02341369 -106.0859375 303.03125 C-110.73273449 297.95219282 -116.37137744 295.60597732 -123.13671875 294.78125 C-129.31406905 294.59511515 -135.44295556 295.68276672 -141.53515625 296.59375 C-147.5475919 297.33455615 -151.04274842 297.63380926 -156.0859375 294.03125 C-157.64404297 291.80151367 -157.64404297 291.80151367 -158.953125 289.19921875 C-159.44337158 288.24208984 -159.93361816 287.28496094 -160.4387207 286.29882812 C-161.19221802 284.77418945 -161.19221802 284.77418945 -161.9609375 283.21875 C-162.48324951 282.18298828 -163.00556152 281.14722656 -163.54370117 280.08007812 C-164.58495875 278.01335669 -165.6214395 275.9442208 -166.65283203 273.87255859 C-167.88084682 271.43786761 -169.14804742 269.03626183 -170.45703125 266.64453125 C-170.7917041 266.02102783 -171.12637695 265.39752441 -171.47119141 264.75512695 C-172.33150524 263.1556862 -173.20242314 261.56196155 -174.07421875 259.96875 C-175.36995767 256.20660456 -175.06627597 253.86388546 -174.0859375 250.03125 C-172.703125 247.84375 -172.703125 247.84375 -170.9609375 246.03125 C-170.33058594 245.35835937 -169.70023438 244.68546875 -169.05078125 243.9921875 C-167.80854617 242.75242208 -166.55228791 241.52641518 -165.27734375 240.3203125 C-158.77460178 234.15067313 -153.04920204 226.589119 -152.7734375 217.34375 C-152.88554389 210.33200461 -155.21959809 205.54502764 -160.2109375 200.65625 C-165.17705828 196.53040441 -170.99530127 193.6516269 -176.73876953 190.75830078 C-181.53959614 188.25445213 -184.87204201 186.2115167 -187.0859375 181.03125 C-186.98288761 177.84294879 -186.64736271 175.14203289 -186.0859375 172.03125 C-185.77863148 169.76780337 -185.4783918 167.5033909 -185.18359375 165.23828125 C-184.84009098 162.77322111 -184.4950061 160.30838098 -184.1484375 157.84375 C-183.97892578 156.59916016 -183.80941406 155.35457031 -183.63476562 154.07226562 C-183.46525391 152.86892578 -183.29574219 151.66558594 -183.12109375 150.42578125 C-182.89498413 148.79926636 -182.89498413 148.79926636 -182.66430664 147.13989258 C-181.65436557 141.71161919 -180.6270615 137.55922972 -176.06152344 134.09423828 C-171.92794046 131.87011318 -167.28977991 131.27763989 -162.7109375 130.46875 C-152.50460883 128.61245758 -144.23138553 126.8879251 -138.0859375 118.03125 C-134.67594704 110.8390518 -135.13053774 102.94989931 -137.7109375 95.53125 C-139.34062805 91.47461023 -141.30528748 87.65007136 -143.3359375 83.78125 C-145.61168788 79.31061347 -147.10505548 76.12683989 -146.0859375 71.03125 C-143.45872592 66.65431326 -140.43731051 63.12590814 -136.83984375 59.51953125 C-136.34685287 59.02462692 -135.853862 58.5297226 -135.34593201 58.01982117 C-134.31046854 56.98300622 -133.27251331 55.94867426 -132.23217773 54.91674805 C-130.6491565 53.34446413 -129.07712708 51.76175468 -127.50585938 50.17773438 C-126.4928283 49.16602463 -125.47917713 48.15493531 -124.46484375 47.14453125 C-123.5529126 46.23485596 -122.64098145 45.32518066 -121.70141602 44.38793945 C-118.22935992 41.25942666 -115.5417045 39.24251375 -110.8828125 38.56640625 C-105.78447827 39.19058503 -101.87773242 41.15573389 -97.3359375 43.46875 C-95.6542247 44.30195065 -93.97195637 45.13403121 -92.2890625 45.96484375 C-91.55333008 46.33665771 -90.81759766 46.70847168 -90.05957031 47.09155273 C-83.88104954 50.03330514 -76.1438452 50.20155567 -69.59375 48.3125 C-62.0315357 44.77395444 -58.88031138 38.58421092 -56.0859375 31.03125 C-55.00560409 26.56551123 -54.35172567 22.03594414 -53.6640625 17.49609375 C-52.09654786 8.15857117 -52.09654786 8.15857117 -48.0859375 5.03125 C-39.83083778 2.04597749 -30.86254594 1.07900743 -22.2109375 -0.15625 C-21.02757812 -0.33349609 -19.84421875 -0.51074219 -18.625 -0.69335938 C-4.34992388 -2.77514131 -4.34992388 -2.77514131 0 0 Z "
        fill="#FEFEFE" transform="translate(380.0859375,425.96875)" />
    <path
        d="M0 0 C1.20140625 0.21333984 2.4028125 0.42667969 3.640625 0.64648438 C4.80335938 0.86240234 5.96609375 1.07832031 7.1640625 1.30078125 C8.21287598 1.49454346 9.26168945 1.68830566 10.34228516 1.88793945 C15.20759793 3.17065555 18.54609863 4.44414795 21.375 8.6875 C21.7980957 10.62939453 21.7980957 10.62939453 22.05078125 12.8203125 C22.20522705 14.02397461 22.20522705 14.02397461 22.36279297 15.25195312 C22.46994629 16.09693359 22.57709961 16.94191406 22.6875 17.8125 C24.08048176 28.0307639 24.08048176 28.0307639 29.375 36.6875 C34.86222939 40.63977578 39.82318546 40.74564704 46.375 39.6875 C49.9300471 38.44531249 53.32193399 36.87957428 56.67895508 35.17822266 C61.07887425 32.99575612 64.34888622 32.07470301 69.375 32.6875 C79.18017968 37.182753 91.50332413 50.94414826 96.375 60.6875 C97.04197148 66.35253628 95.06729802 69.93544671 92.4375 74.75 C88.74362677 81.620987 86.28612576 87.65507989 87.375 95.6875 C89.47774711 100.24345206 92.04852899 102.6650246 96.625 104.75390625 C101.08895123 106.26936697 105.67939814 107.26384409 110.2956543 108.20556641 C114.47088387 109.08690384 118.03176012 109.88640713 121.375 112.6875 C124.5676885 118.32036689 125.26911215 124.13989086 126.0625 130.5 C126.19205078 131.43392578 126.32160156 132.36785156 126.45507812 133.33007812 C128.45202823 148.55550192 128.45202823 148.55550192 126.3984375 154.52734375 C123.40838387 157.71942804 119.90526989 159.36003408 116 161.25 C105.86940888 165.99671625 105.86940888 165.99671625 99.375 174.6875 C98.41300011 180.17089937 98.78977087 184.45189103 101.8125 189.1875 C105.08673229 193.58186439 108.78103118 197.61958363 112.51953125 201.62109375 C115.50652583 204.94766245 115.8143146 207.55029227 115.75878906 212.02636719 C115.00020423 217.28627474 112.28461902 221.71063851 109.75 226.3125 C109.22792969 227.31023437 108.70585938 228.30796875 108.16796875 229.3359375 C100.88376524 242.93311738 100.88376524 242.93311738 95.375 245.6875 C93.75231009 245.78361752 92.12552694 245.81732352 90.5 245.8125 C89.63632812 245.81507813 88.77265625 245.81765625 87.8828125 245.8203125 C85.375 245.6875 85.375 245.6875 83.546875 245.19921875 C80.22374648 244.41625142 76.89609971 244.42173532 73.5 244.375 C72.80519531 244.34599609 72.11039063 244.31699219 71.39453125 244.28710938 C66.21437219 244.22369877 63.26190061 245.28211096 59.375 248.6875 C57.39881104 252.53529781 57.16700433 255.61801149 57.28515625 259.90625 C57.30513672 261.08574219 57.32511719 262.26523437 57.34570312 263.48046875 C57.40690351 265.95192267 57.47200817 268.42328299 57.54101562 270.89453125 C57.55970703 272.07402344 57.57839844 273.25351562 57.59765625 274.46875 C57.62609619 275.54189453 57.65453613 276.61503906 57.68383789 277.72070312 C57.20330468 282.33686088 54.94907117 285.77949407 51.375 288.6875 C47.50888957 290.79369716 43.50987374 292.61963892 39.51538086 294.46801758 C37.57346804 295.36990608 35.6413048 296.29066357 33.70898438 297.21289062 C32.46669457 297.79284355 31.22387225 298.37165743 29.98046875 298.94921875 C28.85793701 299.47475342 27.73540527 300.00028809 26.57885742 300.54174805 C23.24334078 301.7345835 20.88602306 302.01004405 17.375 301.6875 C15.35546875 300.4375 15.35546875 300.4375 13.5625 298.6875 C12.88832031 298.05328125 12.21414063 297.4190625 11.51953125 296.765625 C10.81183594 296.07984375 10.10414063 295.3940625 9.375 294.6875 C2.18420294 287.99725078 -2.86425958 283.48791914 -12.96484375 283.09375 C-17.69635858 284.14982967 -21.18647774 286.71502409 -24.03979492 290.62744141 C-25.34959286 292.80253008 -26.56623533 295.00393185 -27.75 297.25 C-33.11004632 307.27654031 -33.11004632 307.27654031 -37.625 309.6875 C-44.92876688 310.91618006 -52.66385846 308.82267587 -59.8125 307.4375 C-61.53629883 307.13005859 -61.53629883 307.13005859 -63.29492188 306.81640625 C-74.24155057 304.72469376 -74.24155057 304.72469376 -78.625 300.6875 C-80.62810292 297.09736895 -81.04920337 293.48521057 -81.5625 289.4375 C-82.79476891 281.05807142 -83.79590624 274.29085898 -90.625 268.6875 C-95.3526641 266.32366795 -101.63235023 267.15647724 -106.5859375 268.4765625 C-110.50912103 269.88460919 -114.15645229 271.43025812 -117.8125 273.4375 C-121.53769977 275.09314434 -124.68206661 275.69197353 -128.625 274.6875 C-131.72000772 272.78387601 -134.09575984 270.27747663 -136.625 267.6875 C-137.62179582 266.71029556 -138.6206304 265.73516802 -139.62109375 264.76171875 C-154.31618056 250.3542422 -154.31618056 250.3542422 -154.93359375 243.0234375 C-154.86961001 238.11801712 -153.00950353 234.54370644 -150.6875 230.3125 C-150.31431641 229.60222656 -149.94113281 228.89195312 -149.55664062 228.16015625 C-148.59243275 226.32902995 -147.60998442 224.50753463 -146.625 222.6875 C-145.00715242 219.45180484 -145.19934916 216.19435471 -145.625 212.6875 C-147.47181013 207.73469102 -149.32934588 205.50610504 -153.9375 202.9375 C-159.45573836 200.42026497 -165.15924873 199.46107106 -171.109375 198.55859375 C-175.07816035 197.57521694 -177.48660603 196.29824001 -180.625 193.6875 C-182.33515638 190.1768436 -183.01517087 186.90707744 -183.4765625 183.046875 C-183.60546875 181.97566406 -183.734375 180.90445313 -183.8671875 179.80078125 C-183.99351562 178.69089844 -184.11984375 177.58101562 -184.25 176.4375 C-184.3840625 175.34308594 -184.518125 174.24867188 -184.65625 173.12109375 C-186.60088635 156.55199831 -186.60088635 156.55199831 -184.18359375 151.93359375 C-180.01589235 148.27492458 -175.1907346 146.01677005 -170.26757812 143.52539062 C-164.63016603 140.55956073 -160.03123609 137.68310351 -157.8125 131.37890625 C-156.94519861 121.53142174 -161.28076364 116.57230873 -167.39453125 109.26171875 C-168.67691667 107.78169775 -169.97714449 106.31592685 -171.32421875 104.89453125 C-174.07911806 101.95018327 -175.13204379 99.85951721 -175.01049805 95.80126953 C-174.17819796 91.23758735 -171.7092506 87.27644506 -169.5 83.25 C-169.025625 82.34701172 -168.55125 81.44402344 -168.0625 80.51367188 C-159.25773943 64.08208492 -159.25773943 64.08208492 -151.625 61.6875 C-147.36366066 61.30676178 -143.69983925 61.32922025 -139.625 62.6875 C-132.7134736 63.16733895 -126.62783921 63.58123354 -120.625 59.6875 C-119.965 59.6875 -119.305 59.6875 -118.625 59.6875 C-118.33625 58.965625 -118.0475 58.24375 -117.75 57.5 C-117.06168787 55.77921967 -116.34106779 54.07039272 -115.56640625 52.38671875 C-114.49811558 49.32369446 -114.39209689 46.92350343 -114.4375 43.6875 C-114.44394531 42.676875 -114.45039062 41.66625 -114.45703125 40.625 C-114.61430249 37.87458195 -115.05023608 35.37562662 -115.625 32.6875 C-115.86328125 30.625 -115.86328125 30.625 -115.9375 28.6875 C-115.97488281 28.048125 -116.01226563 27.40875 -116.05078125 26.75 C-115.40418029 23.61784122 -113.77224324 22.0343225 -111.625 19.6875 C-107.71982328 17.23325724 -103.58198003 15.26779355 -99.42749023 13.27392578 C-97.44828861 12.31771231 -95.48948745 11.3265198 -93.52929688 10.33203125 C-81.76210843 4.51918539 -81.76210843 4.51918539 -75.4519043 5.91015625 C-72.26943356 7.26429053 -70.37822079 9.2984003 -68.125 11.875 C-59.8409097 20.95163552 -59.8409097 20.95163552 -48.4375 24.3125 C-43.02625706 23.92777484 -39.81459603 22.14268045 -36.17578125 18.0625 C-32.2707364 13.14275846 -29.26183935 7.71762204 -26.23828125 2.2265625 C-20.84783786 -6.25718618 -8.19081969 -1.5435184 0 0 Z "
        fill="#FEFEFE" transform="translate(683.625,202.3125)" />
    <path
        d="M0 0 C13.77345336 12.14551532 22.40595981 28.93537239 23.625 47.25 C24.67031834 64.74663798 19.39570414 81.80150953 8.2421875 95.45703125 C-4.5882529 109.68208474 -19.85488989 118.99862436 -39.34765625 120.5703125 C-58.78617154 121.3472244 -75.64995627 115.11992011 -90.375 102.25 C-90.98859375 101.71890625 -91.6021875 101.1878125 -92.234375 100.640625 C-104.09305629 89.62149637 -111.59283447 72.83575441 -112.58984375 56.79296875 C-113.10891038 36.63242097 -106.18399067 18.15606156 -92.5078125 3.22265625 C-66.18685863 -21.12181573 -28.08418878 -22.19954697 0 0 Z "
        fill="#1C9DD9" transform="translate(428.375,562.75)" />
    <path
        d="M0 0 C1.14855469 0.474375 2.29710937 0.94875 3.48046875 1.4375 C20.73793136 9.26640343 33.03728965 23.63780604 40.26171875 41.0390625 C46.32489732 58.86693494 44.07454067 78.54367459 36.1875 95.375 C33.3264834 100.73042052 29.99732323 105.43793354 26 110 C25.20142578 110.92232422 25.20142578 110.92232422 24.38671875 111.86328125 C12.45023372 124.71138327 -4.4147461 130.7594757 -21.5078125 132.3203125 C-40.70177094 132.97614252 -57.67546168 125.51564272 -71.625 112.5625 C-72.40875 111.716875 -73.1925 110.87125 -74 110 C-74.53109375 109.4740625 -75.0621875 108.948125 -75.609375 108.40625 C-88.95871447 94.46623179 -92.48190223 76.28382275 -92.20703125 57.69140625 C-91.72383159 42.82486446 -84.77283913 29.0110269 -75 18 C-74.49210938 17.39929688 -73.98421875 16.79859375 -73.4609375 16.1796875 C-55.88301933 -3.13004526 -23.9143289 -10.20992949 0 0 Z "
        fill="#1C9DD9" transform="translate(679,292)" />
    <path
        d="M0 0 C0.33 0 0.66 0 1 0 C1.24234375 1.03898438 1.4846875 2.07796875 1.734375 3.1484375 C6.95187587 25.07458325 16.93352364 43.75979226 36.69677734 56.05566406 C46.8661095 62.09105463 57.24571161 66.20105245 69 68 C69 68.33 69 68.66 69 69 C46.23 69 23.46 69 0 69 C0 46.23 0 23.46 0 0 Z "
        fill="#e0e0e0" transform="translate(0,936)" />
    <path
        d="M0 0 C22.77 0 45.54 0 69 0 C69 22.77 69 45.54 69 69 C68.67 69 68.34 69 68 69 C67.75765625 67.96101563 67.5153125 66.92203125 67.265625 65.8515625 C62.04812413 43.92541675 52.06647636 25.24020774 32.30322266 12.94433594 C22.1338905 6.90894537 11.75428839 2.79894755 0 1 C0 0.67 0 0.34 0 0 Z "
        fill="#e0e0e0" transform="translate(936,0)" />
    <path
        d="M0 0 C22.77 0 45.54 0 69 0 C69 0.33 69 0.66 69 1 C67.96101563 1.24234375 66.92203125 1.4846875 65.8515625 1.734375 C43.92541675 6.95187587 25.24020774 16.93352364 12.94433594 36.69677734 C6.90894537 46.8661095 2.79894755 57.24571161 1 69 C0.67 69 0.34 69 0 69 C0 46.23 0 23.46 0 0 Z "
        fill="#e0e0e0" transform="translate(0,0)" />
</svg>